<?xml version="1.0" encoding="UTF-8" standalone="no"?>
<svg
   height="800"
   width="1200"
   viewBox="-75 -118.7645 650 712.587"
   version="1.1"
   id="svg49"
   sodipodi:docname="T2interactive.svg"
   xmlns:inkscape="http://www.inkscape.org/namespaces/inkscape"
   xmlns:sodipodi="http://sodipodi.sourceforge.net/DTD/sodipodi-0.dtd"
   xmlns:xlink="http://www.w3.org/1999/xlink"
   xmlns="http://www.w3.org/2000/svg"
   xmlns:svg="http://www.w3.org/2000/svg">
  <sodipodi:namedview
     id="namedview49"
     pagecolor="#ffffff"
     bordercolor="#000000"
     borderopacity="0.25"
     inkscape:showpageshadow="2"
     inkscape:pageopacity="0.0"
     inkscape:pagecheckerboard="0"
     inkscape:deskcolor="#d1d1d1"
     inkscape:export-bgcolor="#ffffffff" />
  <defs
     id="defs25">
    <clipPath
       clip-path="url(#clipPathS)"
       id="z"
       clipPathUnits="userSpaceOnUse">
      <use
         xlink:href="#a"
         transform="translate(-393.41,-258.656)"
         width="100%"
         height="100%"
         id="use1" />
    </clipPath>
    <clipPath
       clip-path="url(#clipPathZ)"
       id="y"
       clipPathUnits="userSpaceOnUse">
      <use
         xlink:href="#a"
         transform="translate(-370.599,-258.656)"
         width="100%"
         height="100%"
         id="use2" />
    </clipPath>
    <clipPath
       clip-path="url(#clipPathe)"
       id="x"
       clipPathUnits="userSpaceOnUse">
      <use
         xlink:href="#a"
         width="100%"
         height="100%"
         id="use3" />
    </clipPath>
    <clipPath
       clip-path="url(#clipPathq)"
       id="w"
       clipPathUnits="userSpaceOnUse">
      <use
         xlink:href="#a"
         transform="translate(-338.608,-258.656)"
         width="100%"
         height="100%"
         id="use4" />
    </clipPath>
    <clipPath
       clip-path="url(#clipPathAj)"
       id="v"
       clipPathUnits="userSpaceOnUse">
      <use
         xlink:href="#a"
         transform="translate(-324.112,-263.932)"
         width="100%"
         height="100%"
         id="use5" />
    </clipPath>
    <clipPath
       clip-path="url(#clipPath3c)"
       id="u"
       clipPathUnits="userSpaceOnUse">
      <use
         xlink:href="#a"
         transform="translate(-299.76,-264.671)"
         width="100%"
         height="100%"
         id="use6" />
    </clipPath>
    <clipPath
       clip-path="url(#clipPath1W)"
       id="t"
       clipPathUnits="userSpaceOnUse">
      <use
         xlink:href="#a"
         transform="translate(-278.489,-267.287)"
         width="100%"
         height="100%"
         id="use7" />
    </clipPath>
    <clipPath
       clip-path="url(#clipPathM)"
       id="s"
       clipPathUnits="userSpaceOnUse">
      <use
         xlink:href="#a"
         transform="translate(-264.266,-258.656)"
         width="100%"
         height="100%"
         id="use8" />
    </clipPath>
    <clipPath
       clip-path="url(#clipPathMv)"
       id="r"
       clipPathUnits="userSpaceOnUse">
      <use
         xlink:href="#a"
         transform="translate(-242.805,-258.656)"
         width="100%"
         height="100%"
         id="use9" />
    </clipPath>
    <clipPath
       clip-path="url(#clipPathT)"
       id="q"
       clipPathUnits="userSpaceOnUse">
      <use
         xlink:href="#a"
         transform="translate(-224.299,-258.656)"
         width="100%"
         height="100%"
         id="use10" />
    </clipPath>
    <clipPath
       clip-path="url(#clipPath4Q)"
       id="l"
       clipPathUnits="userSpaceOnUse">
      <use
         xlink:href="#a"
         width="100%"
         height="100%"
         id="use11" />
    </clipPath>
    <clipPath
       clip-path="url(#clipPathIy)"
       id="p"
       clipPathUnits="userSpaceOnUse">
      <use
         xlink:href="#a"
         width="100%"
         height="100%"
         id="use12" />
    </clipPath>
    <clipPath
       clip-path="url(#clipPathu)"
       id="g"
       clipPathUnits="userSpaceOnUse">
      <use
         xlink:href="#a"
         transform="translate(-402.837,-482.288)"
         width="100%"
         height="100%"
         id="use13" />
    </clipPath>
    <clipPath
       clip-path="url(#clipPathR)"
       id="f"
       clipPathUnits="userSpaceOnUse">
      <use
         xlink:href="#a"
         transform="translate(-394.789,-490.927)"
         width="100%"
         height="100%"
         id="use14" />
    </clipPath>
    <clipPath
       clip-path="url(#clipPathqp)"
       id="o"
       clipPathUnits="userSpaceOnUse">
      <use
         xlink:href="#a"
         transform="translate(-384.492,-289.891)"
         width="100%"
         height="100%"
         id="use15" />
    </clipPath>
    <clipPath
       clip-path="url(#clipPathV)"
       id="n"
       clipPathUnits="userSpaceOnUse">
      <use
         xlink:href="#a"
         transform="translate(-362.909,-281.996)"
         width="100%"
         height="100%"
         id="use16" />
    </clipPath>
    <clipPath
       clip-path="url(#clipPathP)"
       id="m"
       clipPathUnits="userSpaceOnUse">
      <use
         xlink:href="#a"
         transform="translate(-330.808,-281.957)"
         width="100%"
         height="100%"
         id="use17" />
    </clipPath>
    <clipPath
       clip-path="url(#clipPathy)"
       id="k"
       clipPathUnits="userSpaceOnUse">
      <use
         xlink:href="#a"
         transform="translate(-291.858,-281.91)"
         width="100%"
         height="100%"
         id="use18" />
    </clipPath>
    <clipPath
       clip-path="url(#clipPathE)"
       id="j"
       clipPathUnits="userSpaceOnUse">
      <use
         xlink:href="#a"
         transform="translate(-262.05,-281.874)"
         width="100%"
         height="100%"
         id="use19" />
    </clipPath>
    <clipPath
       clip-path="url(#clipPathiG)"
       id="i"
       clipPathUnits="userSpaceOnUse">
      <use
         xlink:href="#a"
         transform="translate(-233.576,-288.437)"
         width="100%"
         height="100%"
         id="use20" />
    </clipPath>
    <clipPath
       clip-path="url(#clipPathSZ)"
       id="h"
       clipPathUnits="userSpaceOnUse">
      <use
         xlink:href="#a"
         transform="translate(-210,-281.812)"
         width="100%"
         height="100%"
         id="use21" />
    </clipPath>
    <clipPath
       clip-path="url(#clipPathFY)"
       id="e"
       clipPathUnits="userSpaceOnUse">
      <use
         xlink:href="#a"
         transform="translate(-392.889,-313.934)"
         width="100%"
         height="100%"
         id="use22" />
    </clipPath>
    <clipPath
       clip-path="url(#clipPathuC)"
       id="d"
       clipPathUnits="userSpaceOnUse">
      <use
         xlink:href="#a"
         transform="translate(-392.889,-313.934)"
         width="100%"
         height="100%"
         id="use23" />
    </clipPath>
    <clipPath
       clip-path="url(#clipPathO)"
       id="c"
       clipPathUnits="userSpaceOnUse">
      <use
         xlink:href="#a"
         transform="translate(-253.318,-314.017)"
         width="100%"
         height="100%"
         id="use24" />
    </clipPath>
    <clipPath
       clip-path="url(#clipPath38)"
       id="b"
       clipPathUnits="userSpaceOnUse">
      <use
         xlink:href="#a"
         transform="translate(-253.318,-314.017)"
         width="100%"
         height="100%"
         id="use25" />
    </clipPath>
    <path
       d="M 166.44,490.928 H 411.337 V 257.985 H 166.44 Z"
       id="a" />
  </defs>
  <path
     d="m 0,0 -51.293,-0.062 -0.16,133.621 -36.932,-0.044 -0.05,42.317 124.385,0.149 0.052,-42.317 L -0.16,133.621 0,0"
     transform="matrix(2.04343,0,0,-2.04343,177.529,361.503)"
     clip-path="url(#b)"
     fill="#1476c6"
     id="path25" />
  <path
     d="m 0,0 -51.293,-0.062 -0.16,133.621 -36.932,-0.044 -0.05,42.317 124.385,0.149 0.052,-42.317 L -0.16,133.621 0,0"
     transform="matrix(2.04343,0,0,-2.04343,177.529,361.503)"
     clip-path="url(#c)"
     fill="#1476c6"
     id="path26" />
  <path
     d="m 0,0 -130.741,-0.157 -0.047,39.323 58.304,43.903 c 10.509,9.029 23.02,19.563 23.001,34.591 -0.011,10.019 -6.283,18.026 -16.802,18.013 -16.03,-0.019 -20.518,-16.555 -21.254,-29.83 l -43.339,8.464 c 4.715,36.823 31.235,59.898 68.303,59.942 34.314,0.041 63.389,-18.458 63.434,-55.527 0.023,-18.534 -8.476,-32.32 -21.987,-44.358 L -60.916,44.509 -64.92,42 1.953,42.08 0,0"
     transform="matrix(2.04343,0,0,-2.04343,462.732,361.672)"
     clip-path="url(#d)"
     id="path27" />
  <path
     d="m 0,0 -130.741,-0.157 -0.047,39.323 58.304,43.903 c 10.509,9.029 23.02,19.563 23.001,34.591 -0.011,10.019 -6.283,18.026 -16.802,18.013 -16.03,-0.019 -20.518,-16.555 -21.254,-29.83 l -43.339,8.464 c 4.715,36.823 31.235,59.898 68.303,59.942 34.314,0.041 63.389,-18.458 63.434,-55.527 0.023,-18.534 -8.476,-32.32 -21.987,-44.358 L -60.916,44.509 -64.92,42 1.953,42.08 0,0"
     transform="matrix(2.04343,0,0,-2.04343,462.732,361.672)"
     clip-path="url(#e)"
     id="path28" />
  <path
     d="m 0,0 v -1.016 h 2.91 v -7.623 h 1.178 v 7.623 H 6.997 V 0 H 0"
     transform="matrix(2.04343,0,0,-2.04343,466.614,0)"
     clip-path="url(#f)"
     id="path29" />
  <path
     d="M 0,0 H 1.109 V 5.098 C 1.109,5.299 1.099,5.62 1.085,6.053 1.068,6.486 1.062,6.809 1.062,7.023 V 7.285 L 3.556,0 H 4.719 L 7.227,7.285 C 7.227,6.82 7.218,6.382 7.204,5.975 A 22.448,22.448 0 0 1 7.181,5.098 V 0 H 8.29 V 8.639 H 6.63 L 4.144,1.334 1.665,8.639 H 0 V 0"
     transform="matrix(2.04343,0,0,-2.04343,483.06,17.653)"
     clip-path="url(#g)"
     id="path30" />
  <path
     d="M 0,0 -4.629,-0.006 -4.643,12.052 -7.976,12.049 -7.981,15.867 3.244,15.881 3.249,12.062 -0.014,12.058 0,0"
     transform="matrix(2.04343,0,0,-2.04343,89.012,427.311)"
     clip-path="url(#h)"
     id="path31" />
  <path
     d="M 0,0 -1.301,4.604 -2.592,-0.003 Z M 0.837,-3.471 -3.398,-3.476 -4.366,-6.601 -8.324,-6.606 -3.413,9.277 1.725,9.283 6.72,-6.588 1.744,-6.594 0.837,-3.471"
     transform="matrix(2.04343,0,0,-2.04343,137.188,413.774)"
     clip-path="url(#i)"
     id="path32" />
  <path
     d="m 0,0 -2.739,5.991 -1.663,-2.316 0.004,-3.68 -4.582,-0.005 -0.019,15.877 4.582,0.004 0.008,-6.549 4.39,6.555 4.374,0.005 L 0.358,10.068 5.346,0.007 0,0"
     transform="matrix(2.04343,0,0,-2.04343,195.372,427.185)"
     clip-path="url(#j)"
     id="path33" />
  <path
     d="m 0,0 -11.918,-0.015 -0.019,15.877 11.918,0.015 0.004,-3.657 -7.151,-0.009 0.004,-2.314 5.784,0.007 0.005,-3.541 -5.785,-0.007 0.003,-2.569 7.15,0.008 L 0,0"
     transform="matrix(2.04343,0,0,-2.04343,256.283,427.111)"
     clip-path="url(#k)"
     id="path34" />
  <path
     d="m 312.448,287.635 h -9.565 v 4.474 h 9.565 z"
     transform="matrix(2.04343,0,0,-2.04343,-340.108,1003.173)"
     clip-path="url(#l)"
     id="path35" />
  <path
     d="M 0,0 -4.629,-0.005 -4.643,12.052 -7.975,12.048 -7.98,15.867 3.244,15.881 3.249,12.062 -0.014,12.058 0,0"
     transform="matrix(2.04343,0,0,-2.04343,335.874,427.015)"
     clip-path="url(#m)"
     id="path36" />
  <path
     d="m 0,0 -4.096,-0.005 -2.21,8.745 h -0.046 l -2.049,-8.75 -4.258,-0.006 -4.255,15.872 4.583,0.005 2.209,-9.162 h 0.046 l 2.142,9.168 3.819,0.004 2.348,-9.162 h 0.046 L 0.467,15.877 4.194,15.882 0,0"
     transform="matrix(2.04343,0,0,-2.04343,401.47,426.935)"
     clip-path="url(#n)"
     id="path37" />
  <path
     d="M 0,0 C 0.002,-1.527 0.168,-4.466 2.389,-4.464 4.611,-4.462 4.77,-1.522 4.768,0.005 4.766,1.556 4.53,4.657 2.378,4.655 0.226,4.652 -0.002,1.551 0,0 Z M 9.975,0.035 C 9.98,-4.478 7.207,-8.091 2.393,-8.097 -2.42,-8.103 -5.202,-4.496 -5.207,0.017 -5.213,4.762 -2.463,8.236 2.374,8.242 7.211,8.248 9.969,4.779 9.975,0.035"
     transform="matrix(2.04343,0,0,-2.04343,445.573,410.802)"
     clip-path="url(#o)"
     id="path38" />
  <path
     d="m 206.911,258.656 h -4.474 v 14.476 h 4.474 z"
     transform="matrix(2.04343,0,0,-2.04343,-340.108,1003.173)"
     clip-path="url(#p)"
     id="path39" />
  <path
     d="M 0,0 -4.157,6.774 -5.445,9.391 -5.487,9.349 -5.445,9.18 C -5.233,8.251 -5.149,7.744 -5.149,6.753 V 0 h -3.609 v 14.476 h 4.2 l 4.853,-8.082 0.043,0.042 -0.317,4.01 v 4.03 H 3.629 V 0 H 0"
     transform="matrix(2.04343,0,0,-2.04343,118.23,474.629)"
     clip-path="url(#q)"
     id="path40" />
  <path
     d="m 0,0 h -4.22 v 10.994 h -3.039 v 3.482 H 2.976 V 10.994 H 0 V 0"
     transform="matrix(2.04343,0,0,-2.04343,156.046,474.629)"
     clip-path="url(#r)"
     id="path41" />
  <path
     d="M 0,0 H -10.868 V 14.476 H 0 v -3.334 h -6.52 v -2.11 h 5.275 V 5.803 H -6.52 V 3.461 H 0 V 0"
     transform="matrix(2.04343,0,0,-2.04343,199.9,474.629)"
     clip-path="url(#s)"
     id="path42" />
  <path
     d="M 0,0 C 0.971,0 2.131,0.147 2.131,1.393 2.131,1.879 1.878,2.342 1.434,2.575 1.055,2.764 0.591,2.764 0.169,2.764 H -1.625 V 0 Z m 1.878,-8.631 -2.11,5.529 H -1.625 V -8.631 H -6.12 V 5.845 H 1.245 C 2.511,5.845 3.904,5.677 4.98,4.959 6.183,4.199 6.753,2.913 6.753,1.498 6.753,-0.4 5.908,-1.54 4.199,-2.321 l 2.617,-6.31 H 1.878"
     transform="matrix(2.04343,0,0,-2.04343,228.964,456.992)"
     clip-path="url(#t)"
     id="path43" />
  <path
     d="M 0,0 -1.181,4.199 -2.363,0 Z M 0.759,-3.165 H -3.102 L -3.989,-6.014 H -7.597 L -3.102,8.462 H 1.582 L 6.119,-6.014 H 1.582 l -0.823,2.849"
     transform="matrix(2.04343,0,0,-2.04343,272.43,462.338)"
     clip-path="url(#u)"
     id="path44" />
  <path
     d="m 0,0 c -0.275,-3.334 -2.701,-5.486 -6.035,-5.486 -4.347,0 -6.627,3.144 -6.627,7.259 0,4.178 2.005,7.639 6.563,7.639 3.693,0 5.803,-2.195 6.099,-5.803 L -4.137,3.397 c 0.043,1.225 -0.421,2.765 -1.919,2.765 -1.963,0 -2.047,-3.018 -2.047,-4.389 0,-1.456 0.084,-3.925 2.089,-3.925 1.371,0 1.899,1.202 1.962,2.405 L 0,0"
     transform="matrix(2.04343,0,0,-2.04343,322.191,463.848)"
     clip-path="url(#v)"
     id="path45" />
  <path
     d="M 0,0 H -4.221 V 10.994 H -7.26 v 3.482 H 2.975 V 10.994 H 0 V 0"
     transform="matrix(2.04343,0,0,-2.04343,351.813,474.629)"
     clip-path="url(#w)"
     id="path46" />
  <path
     d="m 353.781,258.656 h -4.474 v 14.476 h 4.474 z"
     transform="matrix(2.04343,0,0,-2.04343,-340.108,1003.173)"
     clip-path="url(#x)"
     id="path47" />
  <path
     d="M 0,0 H -4.537 L -9.2,14.476 h 4.663 l 2.279,-7.829 0.423,-1.435 0.401,1.372 2.279,7.892 h 3.65 L 0,0"
     transform="matrix(2.04343,0,0,-2.04343,417.184,474.629)"
     clip-path="url(#y)"
     id="path48" />
  <path
     d="M 0,0 H -10.868 V 14.476 H 0 v -3.334 h -6.521 v -2.11 h 5.276 V 5.803 H -6.521 V 3.461 H 0 V 0"
     transform="matrix(2.04343,0,0,-2.04343,463.797,474.629)"
     clip-path="url(#z)"
     id="path49" />
</svg>
